# xmcd
#
# Track frame offsets: 
#        150
#        15304
#        25669
#        35980
#        47775
#        62686
#        73489
#        91268
#        100691
#        112015
#        124101
#        135962
#        149384
#        160921
#        176062
#
# Disc length: 2570 seconds
#
# Revision: 1
# Processed by: cddbd v1.5.2PL0 Copyright (c) Steve Scherf et al.
# Submitted via: ExactAudioCopy v0.99pb5
#
DISCID=cf0a080f
DTITLE=Frank Corrales and Los Tortilleros - Burning Desires
DYEAR=2000
DGENRE=Latin
TTITLE0=Aquellos Ojos Verdes
TTITLE1=Jesusita En Chihuahua
TTITLE2=Enchiladas Rojas
TTITLE3=Adios Mariquita Linda
TTITLE4=Mira Luisa
TTITLE5=La Bamba
TTITLE6=Mi Rosal
TTITLE7=Quiereme Jesusita
TTITLE8=Rosita Alvires
TTITLE9=El Porro De Jaime
TTITLE10=Atotonilco
TTITLE11=Cuatro Milpas
TTITLE12=Las Nubes
TTITLE13=Pajarillo Barranqueno
TTITLE14=Gabino Barrera
EXTD=Recordin Studio is IAGO/TALKING TACO\nMy Name Is Luis
EXTT0=
EXTT1=
EXTT2=
EXTT3=
EXTT4=
EXTT5=
EXTT6=
EXTT7=
EXTT8=
EXTT9=
EXTT10=
EXTT11=
EXTT12=
EXTT13=
EXTT14=
PLAYORDER=
